<svg xmlns="http://www.w3.org/2000/svg" xmlns:xlink="http://www.w3.org/1999/xlink" zoomAndPan="magnify" preserveAspectRatio="xMidYMid meet" version="1.0" viewBox="128.06 174.12 118.86 26.5"><defs><g/></defs><g fill="#101010" fill-opacity="1"><g transform="translate(125.126948, 200.624987)"><g><path d="M 14.03125 0 L 14.03125 -21.34375 L 2.9375 -21.34375 L 2.9375 -26.5 L 30.265625 -26.5 L 30.265625 -21.34375 L 19.1875 -21.34375 L 19.1875 0 Z M 14.03125 0 "/></g></g></g><g fill="#101010" fill-opacity="1"><g transform="translate(158.336156, 200.624987)"><g><path d="M 2.9375 0 L 2.9375 -21.34375 L 8.09375 -26.5 L 28.34375 -26.5 L 28.34375 -21.34375 L 8.09375 -21.34375 L 8.09375 0 Z M 2.9375 0 "/></g></g></g><g fill="#101010" fill-opacity="1"><g transform="translate(189.613521, 200.624987)"><g><path d="M 2.9375 0 L 2.9375 -5.15625 L 10.484375 -5.15625 L 10.484375 -21.34375 L 2.9375 -21.34375 L 2.9375 -26.5 L 23.1875 -26.5 L 23.1875 -21.34375 L 15.640625 -21.34375 L 15.640625 -5.15625 L 23.1875 -5.15625 L 23.1875 0 Z M 2.9375 0 "/></g></g></g><g fill="#101010" fill-opacity="1"><g transform="translate(215.739316, 200.624987)"><g><path d="M 2.9375 0 L 2.9375 -21.34375 L 8.09375 -26.5 L 26.03125 -26.5 L 31.1875 -21.34375 L 31.1875 0 L 26.03125 0 L 26.03125 -10.671875 L 8.09375 -10.671875 L 8.09375 0 Z M 8.09375 -15.828125 L 26.03125 -15.828125 L 26.03125 -21.34375 L 8.09375 -21.34375 Z M 8.09375 -15.828125 "/></g></g></g></svg>